<svg width="90" height="127" viewBox="0 0 90 127" fill="none" xmlns="http://www.w3.org/2000/svg">
<path d="M16.8903 1.81669V14.5826H25.7283V9.67266H37.5123H40.4583H41.4403H42.4222L44.3862 9.75446L45.3682 9.89086L46.3502 10.0819L48.3142 10.6547L50.2782 11.3366L51.2602 11.7458L52.2422 12.2368L53.2242 12.8369L55.1882 14.228L57.0432 15.7283L57.8337 16.5739L58.3522 17.0649L59.1162 18.5106L57.6432 17.3922L56.1152 16.8194L55.1882 16.6557L54.2062 16.5739L53.2242 16.5466H52.2422H50.2782H41.4403H1.17839V102.962H10.0164V64.6645H15.9083V57.7905H10.0164V24.4026H61.0802L60.8072 22.9296L60.2622 21.4566L59.9077 20.5292L59.6072 19.9836L59.1162 18.5106L60.3162 19.9836L61.2167 21.5112L61.6527 22.4386L62.3627 24.4026L62.6347 25.3846L62.9627 27.3486L63.0167 28.3306L63.0442 30.2946V31.2766V33.2406V35.2046V36.1866L62.9627 38.1506L62.8262 39.1326L62.3627 41.0966L61.7352 43.0605L60.9987 45.0245L60.5342 46.0065L60.0167 46.9885L58.7067 48.9525L57.0707 50.8892L56.1427 51.8167L54.2062 53.3988L52.2422 54.5717L51.2602 54.9809L49.2962 55.6628L48.3142 55.9629L47.3322 56.1811L46.3502 56.4266L44.3862 56.7267L43.4042 56.7812L41.4403 56.8085H40.4583H38.4943H25.7283V26.3666H16.8903V115.728H25.7283V64.6645H43.4042H46.3502H48.3142L50.2782 64.6372L51.2602 64.5554L52.2422 64.3644L53.2242 64.0644L55.1882 63.2188L56.1702 62.7551L58.1342 61.8822L59.1162 61.4457L61.0802 60.3001L62.0072 59.6181L62.9892 58.9907L64.6154 57.6923L65.0769 57.7905L63.5352 59.2362L62.0072 60.5456L61.0802 61.2548L59.1712 62.455L58.6252 62.7005L57.1522 63.6825L57.5342 64.1077L57.9162 64.3917L58.3812 64.5692L58.8462 64.6154L59.2252 64.6099L60.1257 64.6372L61.0802 64.6645H62.0622H64.0262H76.7921V57.7905H65.0769L64.6154 57.6923L65.7722 56.3175L66.2632 55.7719L66.9722 54.7899L68.3087 52.8805L69.2907 50.9165L69.7542 49.9345L70.1637 48.9525L70.6547 47.9705L71.4461 46.0065L71.7182 45.0245L72.2366 43.0605L72.4821 42.0786L72.7827 40.1146L72.8367 39.1326L72.8641 37.1686V36.1866V33.2406V30.2946V29.3126L72.8367 27.3486L72.7827 26.3666L72.4821 24.4026L72.2642 23.4206L72.0727 22.4386L71.6641 20.4746L71.4186 19.4926L70.6547 17.5286L70.1362 16.5466L69.6727 15.5646L68.4727 13.6006L67.7087 12.6187L66.8907 11.6367L65.0082 9.69996L64.0262 8.77247L62.0622 7.13587L60.0982 5.82648L58.1342 4.84448L56.1702 4.10798L55.1882 3.78068L53.2242 3.20788L52.2422 2.98959L50.2782 2.60778L49.2962 2.41679L48.3142 2.19859L46.3502 1.89849L45.3682 1.84399L44.3862 1.81669H42.4222H37.5123H16.8903Z" fill="#605F5E"/>
<path d="M25.7283 9.67265V14.5826H16.8904L17.6541 15.2918L18.1724 15.3191L18.9634 15.51L19.8636 15.5373L21.8003 15.5646H23.7097H26.7103V13.546L26.683 12.5913L26.6557 11.7457L26.4648 10.9547L26.4375 10.4364L25.7283 9.67265Z" fill="#A89700"/>
<path d="M71.8822 16.5466L71.9637 18.0196L72.2917 19.5472L72.5637 20.4746L73.1912 22.384L73.4102 22.9296L73.8462 24.4026H85.6301V16.5466H71.8822Z" fill="#605F5E"/>
<path d="M10.0164 24.4026L10.7802 25.1118L11.2985 25.1391L12.0895 25.33L12.9897 25.3573L13.9444 25.3846H15.9083H16.8903H18.8543H24.7463H61.0802V24.4026H59.8427H58.8462H58.0283H57.1522H55.1882H54.2062H52.2422H46.3502H10.0164ZM73.8461 24.4026L74.6101 25.1118L75 25.3846H76.1538H77.3077H78.7561L80.7201 25.3846H85.6301V24.4026H84.4201H83.5457H82.6442H80.7201H78.7561H73.8461Z" fill="#605F5E"/>
<path d="M25.7283 26.3666V56.8085L26.4375 56.0447L26.4648 55.5264L26.6557 54.7354L26.683 53.8352L26.7103 51.8985V50.9165V48.9525V34.2226V32.2586V31.2766L26.683 29.3399L26.6557 28.4397L26.4648 27.6487L26.4375 27.1304L25.7283 26.3666Z" fill="#A89700"/>
<path d="M49.9512 55.1718V55.4992H50.6052V55.1718H49.9512ZM66.9231 56.8615L65.0769 57.7905H67.0966H68.0769H68.9874H70.9002H72.8642H76.7921L76.0281 57.0923L75.531 56.9308L75.1251 56.8846L74.7192 56.8615H74.2689H73.8187H71.8822H69.9182H66.9231Z" fill="#605F5E"/>
<path d="M25.7283 64.6645V115.728L26.4375 114.964L26.4648 114.446L26.6557 113.655L26.683 112.755L26.7103 111.8V109.836V108.854V106.89V100.998V65.6465H49.2962L48.5323 64.9373L48.0138 64.91L47.2233 64.7191L46.3228 64.6918L44.3863 64.6645H43.4043H41.4403H25.7283Z" fill="#A89700"/>
<path d="M90 2.3077L90 115.48H87.6923V123.891V122.285V119.075V98.2055V24.3604V5.09649L87.6923 2.30769L87.8206 2.3077L88.8462 2.30769L90 2.3077Z" fill="#A89700"/>
</svg>
