<svg width="39" height="55" viewBox="0 0 39 55" fill="none" xmlns="http://www.w3.org/2000/svg">
<path d="M7.31915 0.787231V6.31915H11.1489V4.19149H16.2553H17.5319H17.9574H18.383L19.234 4.22693L19.6596 4.28604L20.0851 4.36881L20.9362 4.61702L21.7872 4.91251L22.2128 5.08983L22.6383 5.30259L23.0638 5.56263L23.9149 6.16549L24.7187 6.81561L25.0613 7.18204L25.286 7.39481L25.617 8.02127L24.9787 7.53663L24.3166 7.28842L23.9149 7.21749L23.4894 7.18204L23.0638 7.17021H22.6383H21.7872H17.9574H0.510635V44.617H4.34042V28.0213H6.89361V25.0425H4.34042V10.5745H26.4681L26.3498 9.93617L26.1136 9.29787L25.96 8.896L25.8298 8.65957L25.617 8.02127L26.137 8.65957L26.5272 9.32153L26.7162 9.7234L27.0238 10.5745L27.1417 11L27.2838 11.8511L27.3072 12.2766L27.3191 13.1277V13.5532V14.4043V15.2553V15.6808L27.2838 16.5319L27.2247 16.9574L27.0238 17.8085L26.7519 18.6596L26.4328 19.5106L26.2315 19.9362L26.0072 20.3617L25.4396 21.2128L24.7306 22.052L24.3285 22.4539L23.4894 23.1395L22.6383 23.6477L22.2128 23.8251L21.3617 24.1205L20.9362 24.2506L20.5106 24.3451L20.0851 24.4515L19.234 24.5816L18.8085 24.6052L17.9574 24.617H17.5319H16.6808H11.1489V11.4255H7.31915V50.1489H11.1489V28.0213H18.8085H20.0851H20.9362L21.7872 28.0094L22.2128 27.974L22.6383 27.8912L23.0638 27.7612L23.9149 27.3948L24.3404 27.1939L25.1915 26.8156L25.617 26.6265L26.4681 26.13L26.8698 25.8345L27.2953 25.5626L28 25L28.2 25.0425L27.5319 25.669L26.8698 26.2364L26.4681 26.5437L25.6408 27.0638L25.4043 27.1702L24.766 27.5957L24.9315 27.78L25.097 27.9031L25.2985 27.98L25.5 28L25.6643 27.9976L26.0545 28.0094L26.4681 28.0213H26.8936H27.7447H33.2766V25.0425H28.2L28 25L28.5013 24.4043L28.714 24.1678L29.0213 23.7423L29.6004 22.9149L30.0259 22.0638L30.2268 21.6383L30.4043 21.2128L30.617 20.7872L30.96 19.9362L31.0779 19.5106L31.3025 18.6596L31.4089 18.234L31.5391 17.383L31.5625 16.9574L31.5745 16.1064V15.6808V14.4043V13.1277V12.7021L31.5625 11.8511L31.5391 11.4255L31.4089 10.5745L31.3145 10.1489L31.2315 9.7234L31.0545 8.87234L30.9481 8.44681L30.617 7.59574L30.3923 7.17021L30.1915 6.74468L29.6715 5.89361L29.3404 5.46808L28.986 5.04255L28.1702 4.20332L27.7447 3.8014L26.8936 3.09221L26.0425 2.52481L25.1915 2.09927L24.3404 1.78012L23.9149 1.6383L23.0638 1.39008L22.6383 1.29549L21.7872 1.13004L21.3617 1.04727L20.9362 0.952721L20.0851 0.822678L19.6596 0.799061L19.234 0.787231H18.383H16.2553H7.31915Z" fill="#DFDFDF"/>
<path d="M11.1489 4.19148V6.31914H7.31915L7.65013 6.62646L7.87473 6.63829L8.21749 6.72101L8.60758 6.73284L9.44681 6.74467H10.2742H11.5745V5.86995L11.5626 5.45625L11.5508 5.08982L11.4681 4.74706L11.4563 4.52246L11.1489 4.19148Z" fill="#A89700"/>
<path d="M31.1489 7.17021L31.1843 7.80851L31.3264 8.47047L31.4443 8.87234L31.7162 9.69974L31.8111 9.93617L32 10.5745H37.1064V7.17021H31.1489Z" fill="#DFDFDF"/>
<path d="M4.34042 10.5745L4.6714 10.8818L4.896 10.8936L5.23876 10.9763L5.62885 10.9882L6.04255 11H6.89362H7.31915H8.17021H10.7234H26.4681V10.5745H25.9318H25.5H25.1456H24.766H23.9149H23.4894H22.6383H20.0851H4.34042ZM32 10.5745L32.3311 10.8818L32.5 11H33H33.5H34.1277L34.9787 11H37.1064V10.5745H36.582H36.2031H35.8125H34.9787H34.1277H32Z" fill="#DFDFDF"/>
<path d="M11.1489 11.4255V24.617L11.4563 24.286L11.4681 24.0615L11.5508 23.7187L11.5626 23.3286L11.5745 22.4894V22.0638V21.2128V14.8298V13.9787V13.5532L11.5626 12.714L11.5508 12.3239L11.4681 11.9811L11.4563 11.7565L11.1489 11.4255Z" fill="#A89700"/>
<path d="M21.6455 23.9078V24.0497H21.9289V23.9078H21.6455ZM29 24.64L28.2 25.0425H29.0752H29.5H29.8945H30.7234H31.5745H33.2766L32.9455 24.74L32.7301 24.67L32.5542 24.65L32.3783 24.64H32.1832H31.9881H31.1489H30.2979H29Z" fill="#DFDFDF"/>
<path d="M11.1489 28.0213V50.1489L11.4563 49.8179L11.4681 49.5932L11.5508 49.2506L11.5626 48.8604L11.5745 48.4468V47.5957V47.1702V46.3191V43.766V28.4468H21.3617L21.0306 28.1395L20.806 28.1277L20.4634 28.0449L20.0732 28.0331L19.234 28.0213H18.8085H17.9575H11.1489Z" fill="#A89700"/>
<path d="M39 1L39 50.0414H38V53.686V52.9904V51.5991V42.5557V10.5562V2.20848L38 1L38.0556 1L38.5 1L39 1Z" fill="#A89700"/>
</svg>
